<?xml version="1.0" encoding="UTF-8"?>
<svg version="1.1" viewBox="0 0 1980 1404" width="1280" height="1280" xmlns="http://www.w3.org/2000/svg">
<path transform="translate(1e3 338)" d="m0 0h28l28 4 20 5 21 9 14 8 12 9 10 9 13 13 10 13 10 16 11 21 9 24 1 4h45l49 1 16 4 8 6 5 8 4 13 1 13 2 48 2 32 1 41 2 37 2 54 2 28 3 81 2 53v21l18 2 47 3 74 6 66 5 34 3 21 1 9 2 6 4 4 6-1 7-6 7-5 2h-9l-21-2-31-2-23-2-28-2-22-2-29-2-54-4-26-2-21-1 2 56 1 29-3 12-7 10-8 4-14 3-13 1-589-1-12-3-8-6-5-9-2-10v-19l1-47 1-23-57 4-63 5-58 5-80 6h-14l-5-3-4-5-1-8 4-6 5-3 21-3 34-3 77-6 9-1 37-2 63-5 10-1h24l2-30 5-85 5-97 6-129 2-33 1-28 4-17 4-8 5-5 8-4 10-3 98-1 3-10 7-19 10-19 9-14 9-12 7-8 8-7 17-13 15-9 16-8 19-7 25-6zm-12 31-21 4-15 5-21 11-14 10-12 11-8 7-13 15-7 10-6 9-9 18v4l22 1h245l20-1-1-7-8-17-9-14-11-14-17-17-13-10-17-10-18-8-17-5-15-2z" fill="#FDC85C"/>
<path transform="translate(1e3 338)" d="m0 0h28l28 4 20 5 21 9 14 8 12 9 10 9 13 13 10 13 10 16 11 21 9 24 1 4h45l49 1 16 4 8 6 5 8 4 13 1 13 2 48 2 32 1 41 2 37 2 54 2 28 3 81 2 53v21l18 2 47 3 74 6 66 5 34 3 21 1 9 2 6 4 4 6-1 7-6 7-5 2h-9l-21-2-31-2-23-2-28-2-22-2-29-2-54-4-26-2-21-1 2 56 1 29-3 12-7 10-8 4-14 3-13 1-589-1-12-3-8-6-5-9-2-10v-19l1-47 1-23-57 4-63 5-58 5-80 6h-14l-5-3-4-5-1-8 4-6 5-3 21-3 34-3 77-6 9-1 37-2 63-5 10-1h24l2-30 5-85 5-97 6-129 2-33 1-28 4-17 4-8 5-5 8-4 10-3 98-1 3-10 7-19 10-19 9-14 9-12 7-8 8-7 17-13 15-9 16-8 19-7 25-6zm-12 31-21 4-15 5-21 11-14 10-12 11-8 7-13 15-7 10-6 9-9 18v4l22 1h245l20-1-1-7-8-17-9-14-11-14-17-17-13-10-17-10-18-8-17-5-15-2zm-254 134-3 3-2 27-4 75-3 56-2 33-2 43-6 107-2 43-3 63-3 50v25l1 1h602l1-1v-18l-7-155-4-88-6-130-3-62-2-53-1-18-1-1h-91l-1 1-1 7v72l-34-1v-77l-2-2h-294l-2 4-1 75h-33v-76l-1-2-29-1z" fill="#5F5D5B"/>
<path transform="translate(1208,707)" d="m0 0 4 1 4 8 4 9 10 21 8 24 1 6v16l-2 11-5 12-6 10-7 6-4 1h-11l-8-4-5-6-7-15-4-16v-19l4-15 6-14 16-32z" fill="#FFDA97"/>
<path transform="translate(1026,852)" d="m0 0h15l15 4 12 5 17 9 11 6-1 2-32 8-39 8-32 5-22 1-2-2 9-13 9-11 8-8 13-8 14-5z" fill="#5F5D5B"/>
<path transform="translate(1112,777)" d="m0 0h12l9 5 5 7 1 3v12l-5 8-6 5-9 3-8-1-7-4-6-8-1-3v-12l4-7 8-7z" fill="#5F5D5B"/>
<path transform="translate(899,777)" d="m0 0h13l9 6 5 8 1 8-3 10-5 6-8 4h-12l-6-4-4-4-4-9 1-9 4-9z" fill="#5F5D5B"/>
<path transform="translate(883,802)" d="m0 0 3 4 4 5-1 4-3-1-2-3z" fill="#FED995"/>
</svg>
