<?xml version="1.0" encoding="UTF-8"?>
<svg version="1.1" viewBox="0 0 800 800" width="1280" height="1280" xmlns="http://www.w3.org/2000/svg">
<path transform="translate(395,159)" d="m0 0h9l8 4 7 10 14 25 13 22 28 49 10 17 9 16 14 24 13 22 11 20 14 24 14 25 10 17 13 22 14 24 13 22 13 24 9 15 13 22 15 26 13 22 2 5v10l-5 10-6 4-7 1-518-1-7-2-4-5-2-6v-10l8-16 8-13 12-20 15-26 16-27 14-24 16-27 9-16 10-17 9-16 8-14 10-18 8-13 15-26 13-24 28-48 16-29 16-27 17-29 9-16 6-8 5-3zm-17 96-9 2-6 4-4 8v30l2 21 3 31 5 54 6 58 5 48 3 22 3 7 5 4 11 2 8-3 5-6 2-6 4-30 11-108 6-72 2-16 1-16v-16l-3-10-5-5-6-2-22-1zm9 302-10 2-1 6v24l2 12 2 3h37l4-2 3-8v-28l-2-7-3-2z" fill="#E43433"/>
<path transform="translate(396,118)" d="m0 0 16 1 14 5 11 8 7 8 11 18 13 23 14 24 14 25 9 15 16 28 14 24 15 26 10 17 14 25 14 24 9 15 14 24 32 56 17 29 12 21 17 29 15 26 10 19 2 7 1 13-3 16-7 14-9 10-14 9-10 3-7 1h-538l-12-3-12-7-9-8-7-11-4-10-2-12v-10l3-12 8-16 14-25 15-25 45-78 14-24 16-28 11-19 9-15 12-21 15-26 8-14 14-24 9-16 14-24 28-50 8-13 24-42 9-13 8-7 12-6 10-3zm-6 17-10 4-6 4-5 5-6 7-14 24-16 28-15 25-12 21-8 13-14 25-42 72-13 23-10 17-9 16-7 11-7 14-6 10-14 24-15 26-32 56-14 24-9 17-4 9-1 4v17l4 13 9 10 11 8 8 3 52 1h402l79-1 10-4 9-6 8-9 5-12 2-9-1-12-5-12-11-20-11-19-15-26-10-17-16-28-19-32-12-21-14-24-15-27-15-26-13-22-16-28-15-26-12-21-11-19-15-26-12-21-15-26-9-15-6-8-7-7-12-6-3-1z" fill="#CB3A40"/>
<path transform="translate(358,272)" d="m0 0h1l1 27 2 21 3 31 5 54 6 58 5 48 3 22 1 6h-5l1-2 1-9-3-1-2-11-1-13-1-11h-2l-2-7v-10l1-11-1-13-1-3h-2l-2-7v-15l-1-15-2-13 1-10v-21h-3l-2-13-1-9 1-7-4-18 2-14v-28z" fill="#CB3A40"/>
<path transform="translate(485,290)" d="m0 0 4 5 15 26 20 34 11 20 10 17 14 25 9 15-1 2-4-5v-2h-2l-5-10-3-3-1-6-3-1-4-8v-2h-2l-4-8-2-2-2-10-3-1-1-5h-2l-5-8v-2l-4-2-5-8-2-1v-2l-4-2-7-9-5-10-1-5h-2l-4-12-3-13-2-4z" fill="#CB3A40"/>
<path transform="translate(412,164)" d="m0 0 4 4 12 21 10 18 8 13 8 14-1 2-4-6-5-4-1-3-11-9-2-5-3-5-3-10-8-16-2-5-3-7z" fill="#CB3A40"/>
<path transform="translate(575,446)" d="m0 0 3 3 15 26 9 15h-3l-6-8v-2h-2l-7-10-4-7-1-7-4-7z" fill="#CB393F"/>
<path transform="translate(382,551)" d="m0 0 6 1 2 1h8l7 2 12 1v1l-37 1v-5z" fill="#CB3A40"/>
<path transform="translate(672,613)" d="m0 0 2 3v10l-5 10-4 3-2-1 4-5 2-17 3-1z" fill="#CC393F"/>
<path transform="translate(610,506)" d="m0 0 4 5 10 18-2 1v-2l-3-1-1-4-3-2-5-12z" fill="#CB3A40"/>
</svg>
