<?xml version="1.0" encoding="UTF-8"?>
<svg version="1.1" viewBox="0 0 1104 1104" width="1280" height="1280" xmlns="http://www.w3.org/2000/svg">
<path transform="translate(543,446)" d="m0 0h21l14 4 12 6 11 9 3 3 199 1v-21l4-1 42 1 1 4v14l1 2 5 2v34l-1 3-4 2-1 19-3 1h-43l-1-1v-21l-134 1-2 11-1 4 9 11 8 11 8 14 5 11 5 15 2 12v95l-5 6-5 2-8-1-6-5-1-2-1-85-2-15-5-15-7-14-10-14-7-8-30 1-5 10-9 11-8 7-12 7-15 5-4 1h-20l-14-4-16-8-12-11-7-10-4-7v-2h-30l-9 10-10 15-9 20-3 16-1 88-3 6-4 3-8 1-6-3-4-5-1-4v-85l3-18 5-16 8-16 9-14 8-10 4-4-1-8-2-9-138-1v21l-3 1h-43l-2-3 1-18h-5l-2-2v-35l6-4 1-19 4-1 42 1 1 3v18l203-1 8-7 14-9 14-5z"/>
<path transform="translate(229,421)" d="m0 0h86l42 1 53 3 19 2 6 2-1 3-9 3-37 3-41 2h-140l-43-2-38-3-8-3v-4l25-3 29-2z"/>
<path transform="translate(787,421)" d="m0 0h76l46 1 54 3 22 3 2 3-6 3-14 2-44 3-25 1h-138l-45-2-37-3-8-3-1-3 6-2 34-3 39-2z"/>
<path transform="translate(272,404)" d="m0 0h8l2 4v7l-2 1h-9l-2-3 1-7z"/>
<path transform="translate(824,404)" d="m0 0h8l2 4v7l-2 1h-9l-1-1v-8z"/>
</svg>
