<?xml version="1.0" encoding="UTF-8"?>
<svg version="1.1" viewBox="0 0 1608 1608" width="1280" height="1280" xmlns="http://www.w3.org/2000/svg">
<path transform="translate(807,348)" d="m0 0h59l34 3 32 5 28 6 25 7 31 11 26 11 16 8 21 11 13 8 24 15 14 10 16 12 17 14 12 11 8 7 5 4 7 8 9 9 7 8 10 11 11 14 14 18 13 19 13 21 12 22 8 15 13 30 7 19 9 30 7 29 5 27 3 23 3 41v36l-4 51-6 35-6 25-8 26-11 31-13 30-13 27-11 19-10 16-9 13-12 16-7 9-2 3h-2l-2 4-9 11-22 24-21 21-8 7-14 12-10 8-14 10-18 12-18 11-19 11-16 8-28 13-27 10-15 5-39 10-30 6-29 4-29 2h-54l-36-3-27-4-23-5-30-8-36-12-24-10-19-9-22-12-17-10-21-14-14-10-17-13-12-10-10-8-15-14-12-12-7-8-10-11-9-11-13-16-13-19-11-17-15-25-15-29-12-27-10-27-9-30-7-30-5-29-4-38-1-41 1-36 2-22 1-26 1-139 5 2 19 10 24 14 29 17 23 14 7 8v16l-8 40-4 27-3 25-3 39v45l4 36 5 26 8 30 11 31 11 25 8 16 15 26 20 30 9 11 11 13 11 12 20 20 11 9 15 13 26 18 15 9 21 12 21 10 27 11 28 9 35 9 23 4 25 3 13 1h34l30-3 33-5 24-6 26-8 32-12 35-17 24-15 20-14 13-10 14-11 17-16 24-24 2-3h2l2-4 11-14 9-11 8-11 10-16 11-19 11-23 11-25 10-30 7-28 5-26 4-31v-66l-3-27-4-23-7-28-5-16-7-20-7-17-8-18-10-19-11-19-14-21-14-18-9-11-14-15-20-20-8-7-13-11-16-12-15-10-20-12-16-9-23-11-29-11-27-8-30-7-27-4-56-4-20-1-6-1 1-57 1-30z" fill="#F82E4B"/>
<path transform="translate(474,170)" d="m0 0 7 1 16 10 27 18 44 28 15 10 17 12 16 12 10 8 12 11 8 7 14 12 12 11 7 6 1 2v22l-1 94-2 97-2 137 9-5 17-10 26-12 25-9 25-6 25-4 25-2h15l23 2 23 4 24 6 23 8 20 9 17 9 19 12 15 11 20 18 13 13 7 8 13 17 10 16 12 22 8 18 7 20 7 28 4 23 1 11v43l-2 18-5 26-5 19-7 20-9 20-11 21-7 11-7 10-10 13-11 12-6 7-8 7-11 10-18 13-17 11-12 7-16 8-19 8-15 5-27 6-28 4-11 1h-35l-26-3-28-6-23-7-24-10-23-11-22-13-15-10-9-7-14-11-12-12-8-7-8-8-7-8-9-10-10-13-18-27-14-27-11-25-7-20-7-25-4-20-4-29-2-29-1-5 5 2 13 10 14 10 20 14 10 8 6 4-1-3v-117l2-149 2-185 1-78-4-5-17-11-19-12-23-14-41-26-23-14-24-15-22-14-20-13-15-9-22-14v-3l26-6 49-10zm344 554-25 4-24 8-19 9-17 11-13 10-12 11-8 8-12 16-9 15-7 15-7 21-4 19-1 7v42l5 26 8 22 10 19 11 15 8 10 15 15 12 9 17 11 23 11 18 6 15 4 19 2h23l24-3 24-7 19-8 17-10 14-10 13-12 11-11v-2h2l10-14 10-18 8-19 5-18 3-13 1-11v-34l-2-17-5-20-6-16-8-16-9-15-11-14-12-12-8-7-15-11-13-8-19-9-18-6-22-4-7-1z" fill="#F82E4B"/>
<path transform="translate(1330,137)" d="m0 0 10 3 4 4v2l13 1 23 4 26 7 21 7 1 5-2 1-32 2-40-2-13-2 1 21v18l-6 5-17 9-12 8-28 20-25 17-5 4 3 15v52l-3 3-7 2-5-2-2-2v-47l-5 3-11 8-8 4-16 4h-20l-16-4-13-7-9-7-3-1 1 43-3 7-6 2-9-3-1-2v-19l1-26 2-15v-11l-15-10-17-12-16-12-26-17-11-7-5-5v-34l-9 1h-56l-16-1-4-2 1-4 30-10 31-7 20-3 3-5 7-1 7 2 1 1h7l7-2 7-1h43l15 1 2 2-8 5-17 8-18 6-15 3-17 2h-6l3 28 1 5 9 1h91l173-1 2-6 1-26-32-5-20-6-19-8-9-5v-3l6-1h56l18 3h2l2-4zm-150 82-10 4-8 6-7 8-3 7-1 5v12l3 10 6 8 7 6 12 4h15l9-3 6-4 7-7 4-8 1-6v-10l-3-11-6-9-8-7-9-4-4-1z" fill="#FEFEFE"/>
<path transform="translate(829,834)" d="m0 0h15l13 3 15 8 12 11 6 8 5 10 4 13v23l-5 15-7 12-10 11-15 9-12 4-11 2h-9l-15-3-16-8-13-12-7-10-5-11-3-14v-15l3-14 8-16 12-12 13-8 11-4z" fill="#FEFEFE"/>
<path transform="translate(331,348)" d="m0 0 6 2 22 12 26 15 21 12 24 14 14 9 2 3v16l-2 93-5-2-26-14-24-14-23-13-28-16-7-5z" fill="#F82E4B"/>
<path transform="translate(325,1273)" d="m0 0h35l9 2 7 6 5 12 17 54 12 36h105l2-11 5-18 1-2h-57l-56-1-4-9-2-10 4-4h132l8 2 3 2v7l-12 37-7 19-6 9-4 3h-119l-6-2-7-11-11-30-18-55-6-12-26-1-7-4-3-4v-9l4-5z" fill="#FEFEFE"/>
<path transform="translate(393,1419)" d="m0 0h124l4 4 1 7-2 6-5 3-33 1h-84l-5-2-4-7v-6z" fill="#FEFEFE"/>
<path transform="translate(410,1445)" d="m0 0h8l9 3 7 6 3 6 1 6-2 9-4 6-6 5-8 2-11-1-6-4-5-6-3-8 1-9 5-8 5-4z" fill="#FEFEFE"/>
<path transform="translate(487,1444)" d="m0 0 12 2 7 6 4 7 1 8-3 10-6 7-6 3-10 1-9-3-6-7-3-7v-9l4-9 8-7z" fill="#FEFEFE"/>
</svg>
