<?xml version="1.0" encoding="UTF-8"?>
<svg version="1.1" viewBox="0 0 1608 1608" width="1280" height="1280" xmlns="http://www.w3.org/2000/svg">
<path transform="translate(0)" d="m0 0h1608v1608h-1608z" fill="#FEFDFD"/>
<path transform="translate(475,170)" d="m0 0 6 1 12 7 33 22 17 11 13 8 33 22 17 12 18 14 8 7 10 9 15 13 10 9 4 3v2l4 2 5 6v20l-2 140-2 78-1 112 20-12 16-8 20-9 23-8 22-5 16-3 16-2 14-1h30l29 4 32 8 25 9 16 7 22 12 14 9 18 13 16 15 19 19 9 11 10 14 8 13 10 18 8 17 8 23 7 27 5 30v55l-5 32-2 5-2 11-8 24-9 21-10 19-10 17-10 14-11 14-27 27-13 10-14 10-16 10-29 15-17 7-11 4-10 2-6 2-13 2-7 2-19 2-7 1-27 1-19-1-27-4-7-2-12-2-5-2-12-3-27-10-33-16-13-8-17-11-9-6-17-14-8-8-8-7-12-12v-2l-4-2v-2l-4-2-9-11-12-16-14-21-14-27-7-15-8-19-7-21-3-13-2-8-4-23-3-18-1-21v-8l-2-8 6 1 8 7 17 12 28 20 6 5 2 1v-162l2-76 1-67 1-177v-50l-5-5-12-8-25-16-18-11-11-7-13-8-17-11-10-6-18-11-13-8-14-9-19-12-14-9-15-9-21-13-4-3 1-4 16-3 12-3 31-6 36-8 24-6z" fill="#FB2F4D"/>
<path transform="translate(834,347)" d="m0 0h16l25 1 35 4 29 5 30 7 37 12 32 13 23 11 23 13 20 12 24 16 12 9 16 13 10 8 7 7 8 7 10 9 9 9 7 8 9 10 11 13 11 14 15 20 14 22 14 24 12 23 12 28 10 28 9 32 8 38 4 26 3 41 1 29-2 27-3 38-2 9-2 15-5 22-6 23-10 30-11 28-15 33-12 23-8 13-7 11-9 13-14 19-9 11-7 8-9 11-10 10-7 8-21 21-8 7-9 8-9 7-11 9-22 15-21 13-14 8-23 12-28 13-29 11-31 9-28 7-27 5-20 3-33 2-22 1h-16l-36-2-16-2-23-3-24-5-28-7-25-8-22-8-21-9-23-11-23-13-11-7-16-10-11-8-14-10-17-14-12-9-13-12-26-26-7-8-13-16-8-10-12-17-10-15-17-28-9-16-11-23-10-23-9-24-10-34-6-26-5-28-4-37v-86l2-15 1-21 1-145 6 2 16 9 27 15 13 8 22 13 16 10 5 5 3 5-1 17-6 26-5 30-3 24-4 45v45l5 45 6 27 7 24 7 21 10 24 14 29 10 17 15 24 12 16 9 11 12 14 11 12 11 11 8 7 11 9 13 11 17 12 14 9 20 12 11 6 29 13 24 9 16 5 24 7 16 4 13 2 11 2 17 2 20 2h31l22-2 26-3 26-5 25-7 30-10 20-8 28-13 27-16 13-9 18-13 8-7 12-9 9-9 8-7 12-12 7-8 12-12 8-11 9-11 10-14 14-23 12-23 10-21 10-26 7-23 7-29 4-21 3-19 1-14v-66l-2-16-4-26-4-17-5-19-10-30-8-20-12-25-11-21-9-14-7-11-9-12-10-13-8-10-9-9v-2h-2l-7-8-14-14-8-7-11-10-13-10-14-10-17-11-16-9-7-4-16-8-18-8-22-8-22-7-22-5-11-3-28-4-56-4-26-1-1-1v-28l1-42 1-16 1-5z" fill="#FB2F4D"/>
<path transform="translate(818,724)" d="m0 0h33l25 4 24 8 16 8 13 8 16 12 10 8 7 8 12 15 11 18 8 17 6 16 2 12 2 4 1 6 1 33-1 23-5 21-7 21-8 16-9 15-8 10-9 10-16 15-16 11-16 9-15 7-17 5-15 4-24 2h-14l-23-2-14-4-20-7-16-7-17-10-13-10-11-9-8-8-10-13-9-13-9-16-8-20-4-16-3-17v-43l3-13 3-14 7-20 10-19 11-16 9-11 13-13 13-10 13-9 18-10 20-8 13-4 19-3z" fill="#FEFEFE"/>
<path transform="translate(331,348)" d="m0 0 6 2 23 12 22 13 28 16 19 11 16 10 1 2v23l-2 87-5-2-21-11-17-10-19-11-41-23-9-5-1-2z" fill="#FB2F4D"/>
<path transform="translate(834,347)" d="m0 0h16l25 1 35 4 29 5 30 7 37 12 32 13 23 11 23 13 20 12 24 16 12 9 16 13 10 8 7 7 8 7 10 9 9 9 7 8 9 10 11 13 11 14 15 20 14 22 14 24 12 23 12 28 10 28 9 32 8 38 4 26 3 41 1 29-2 27-3 38-2 9-2 15-5 22-6 23-10 30-11 28-15 33-12 23-8 13-7 11-9 13-4 4 1-4h-2l1-4 3-7 5-6 2-5 4-5 4-9h3l1-5 1-3h2l1-7h3l2-9h2v-5l2-3 3-1 1-7 3-7 4-2 1-3h2l1-2 1-4 2-2-2-2 1-5 3-8 1-1v-3l3-11 3-8 4-7v-7l3-5h2l-1-5 3-6h4v-3l-2-1v-2-1-3l2-5h2v-2h2v-3l-3-1 1-5h2v-2h-2v-5h2l1-3h3v-19l-2-4h3 2l1-5v-25h-2l-1-4 2-1v-3l1-3v-2h-3v-12h2v-7l-3 3-1-4h2l-1-7-1-4 3-1v-2h-2l1-6-1-3-1-5v-3-5l-2-2 3-2v-8h-3v-2l4-2-3-3-1-4h2v-2h-3l-1-7 1-2h-2l-1-4 3-7h-3l-1-6 4-2-4-2v-6-3-9l-3-1 1-4h2l-1-5-2 4-3-4v-4l2-1-1-5h-3l-1-5-2-1 2-4h2l-2-3-4-1-2-7-1-6-1-4-1-2 2-1-3-3-1-4-1-5h2v-3l-4 1-3-4-1-7-5-10v-2h-2l-1-8h-2l-3-11h2v-2h-5l-1-6 4 1-4-4-1-6-4-3h2l-2-7h-2l-5-10-2-1-3 1-2-7-4-2-2-6 4 2-4-10-1-4-4-2-3-4v-5l-4-2v-3l-4-1v-3l-2-1-2-2v-6h-4v-3l-5-2-8-7v-2l-4-1-3-6v-4l-3-1v-2l-4-2-5-5-1-3-4-1v-3l-3-1-3-3v-2h-2v-2l-4-1-4-4v-3l-4-2v-2h-3l-1-3 1-3h-2v-2h-2v-2l-11-2-3-3-3-2v-3h2l-3-4v-2l-6 2-3-1v-2l-5-1-1-4-4-1-1-2-6-1-2-3-3-1v-4h-3l-1-4-7 1-6-5h-2l-1-3-4-1-1-2-8-3v-2h-3v-2h-3v-2l-8-2-5-4v-2h-6l-3-3-7-3 1-3 2 1v-4h-3l-1 4-3-1-1-3-2-2 1-1-2-1-1 3-4-3v2h-6l2-1-8-2-3-1v-3l-7-1-3-1-2-3-5-1h-3v-2l-7-1-7-2-12-3-11-4h-4l-11-3 1-2 6 1 2-2-8-2-1 2-6-1-1-4h-8l-19-4-22-2-2-1-9-1v2l-4-1v2h5v2l-17-1-6-2 1-2h-35l-12-1-3-1 1 7-1 4-1 15v52l1 1 10 1v2l7 1 18 3 8 2 6 3v-2h2v2l22 1 20 4v-2l10 2 11 3h7l9 4h7l4 1v2l11 2 1 1 12 1v-2h2l-2 5h2l1-2 1 3 6-1 3 4h9l2 4 5 2 7 3 8 1 9 4 3 1v2l9 2-3 3-3-2v2l6 3 1-3 6 2v2l5 1 3 1 2 2 4 2h-2v2h5v2h3l3 5 6 2 4 7v2h3 3l5 1 5 4v3l4-1 14 12 2 1 1 3 5 4 3 1 3 2 1 5 4 1v2h3l3 6v2l5 2v2l3 1 5 10 7 4 4 6 5 3 3 8 2 4 4 2-1 4 4 2 6 8 5 10h2l2 6 4 6 2 7 2 1 2 7 2 1 2 5-1 2 3-1 3 5-1 3h3l3 5 3 11-1 1 3 3 1 5 3 1-1 10-4 1-2-1 6 15 1 3 2-4 5 4 1 5-6-2v9l-2-3-9-27-8-20-12-25-11-21-9-14-7-11-9-12-10-13-8-10-9-9v-2h-2l-7-8-14-14-8-7-11-10-13-10-14-10-17-11-16-9-7-4-16-8-18-8-22-8-22-7-22-5-11-3-28-4-56-4-26-1-1-1v-28l1-42 1-16 1-5z" fill="#FD375F"/>
<path transform="translate(248,1197)" d="m0 0h38l5 16 3 10 119 1 5 5v7l-14 37-8 19-3 1h-80l2 11h84l4 2 1 5-1 3-2 1-18 1h-75l-3-2-9-35-13-49-5-20-1-1-27-1-3-5v-5z" fill="#100F0F"/>
<path transform="translate(332,626)" d="m0 0 6 2 16 9 27 15 13 8 22 13 16 10 5 5 3 5-1 17-6 26-5 30-3 24-4 45v45l5 45 6 27 7 24 7 21 10 24 14 29 10 17 15 24 12 16 9 11 12 14 11 12 11 11 8 7 11 9 13 11 17 12 14 9 20 12 11 6 29 13 24 9 16 5 24 7 16 4 13 2 11 2 17 2 20 2h31l22-2 26-3 26-5 25-7 30-10 20-8 28-13 27-16 13-9 18-13 8-7 12-9 9-9 8-7 12-12 7-8 12-12 8-11 9-11 10-14 14-23 12-23 10-21 10-26 7-23 7-29 4-21 3-19 1-14v-66l-2-16-4-26-4-17-4-16 1-3 3 9 2 8 4 18 3 15 3 19 1 15v79l-2 6h-1l-1 8 1 4-2 8h-3l-1 16h-2l1 4h-2v12l-2 3-2 6v6l-2 4v5l-5 7-3 9-1 5-2 6-3 1 1 3-2 6-3 8-3 9-3 5h-2l1 3-3 1v4h-2l1 3-2 3h-2l-1 4 1 2h-2l-1 3-1 5-2 1v2l-4 4h-3l-2 5-2 4h-2l-2 9-4 7-2 1-2 4-3-1-1 3-4 1v4h-2l-2 8h-3l-1 4-3 1v4l-4-1v5h-4l-1 4-3-1-1 4-3 2v3h-4l-1 4h-2l-2 4h-3l-1 4h-3l-1 4-3 1v2l-4 1-1 4-3 1-1 2-2-1-1-1v4h-3l-3 3h-2l-1 4h-3v3l-4 1-1 3-6 2-3 3-6 1v3l-4 2-1 2-7 2v2l-4 2-1 2-9 1 1 3-6 1 2 2-5 2h-3l-1 3-7 4-7 3-9 3-4 1-1 2h-7v2l-14 6-3 2-6 1-6 3-8 2-12 4h-7v2l-13 2-2-1-1 3-11 3-5 1v-3h-4l-1 3-6 2-2 2-9-1-2-1 1-1h-11l-10 2-2 2v-2l-12 1-38 1-3 2h-7l-2-1v2h-2l-3-5v-2l-14-1-5 2-6 3-4-2-1-1-10-1-2-2-7-1-4-2-4 1-4-1v-2l-4-1-5-1h-5v-2h-5v-2l-4-1v2h-4v-2l-4-1v-2l-3-1-1 2h-5v-2l-8-1h-3l-9-2-4-2-5-2v-1l-8-2-1-4h-3l-4-1-2-2-6-2v-3l-3 1-3-3-2-1v-3l-4 2-3-1-1-2-3-1-1-2-7-2-2-5-6-2-2-3-7-2-1-2-3-1v-4h-3l-1-2-8-3-4-4v-2l-3-2v-3l-9-1-5-6-3-1-2-3-2-4-4-1-3-2-5-3-1-3-3-1v-3l-4-1-2-5-10-10v-2h-3l-2-5-3-1v-4h-4l-1-3-3-1-2-2-1-4-1-6-4-1-4-4-4-9v-2l-4-2-4-12-2-4v-2l-4-2-2-3-3-11v-2l-3-1-3-5-2-1-1-7h-2l-2-4h-2l-2-4v-6-3-2l-5-2v-3-3l-4-1v-5-1-2h2l-5-12v-4h-2l-3-4h3v-2l-2-1-1-5-3-7h-2l1-7h-3l-2-4 4-2-1-5-2-1v-4l-5-1 1-8 1-3-3-5 1-2-1-7 1-2h-2l-1-3h2l-1-7 2-1-2-9-3-4 1-23v-21l1-29 2-9 1-10v-27l2-2-2-1 3-1 1-7v-20l4-1v-4l1-4h-2l1-3 3-5v-2l-3-1-1-3 1-2h2l-2-6h2l-2-3-1 2-2-1-1-4-2-5 3 1-1-2-5-1-2-5 1-4 5-1-2-4-3-1-3 1v-2l-3-1v-2h-2v-5h-2-1l-5-1-8-4-1-2-3-1v-4h-7l-4-5-2-2-1 2-5-3-2-6-4-1 1-2-11-6-6 1v5l-5-1-4-3-3-3-4-1v152l-3 20-1 14v54l1 22 2 17 2 16 2 13v6h-1l-4-23-4-37v-86l2-15 1-21z" fill="#FD375F"/>
<path transform="translate(822,620)" d="m0 0h30l29 4 32 8 25 9 16 7 22 12 14 9 18 13 16 15 19 19 9 11 10 14 8 13 10 18 8 17 8 23 7 27 5 30v55l-5 32-2 5-2 11-8 24-9 21-10 19-10 17-10 14-11 14-27 27-13 10-7 5-2-1 5-4 13-10 6-7 6-5 1-8h4l1-4 7-2v-2h2l-1-4 2-2 1-2h2v-2h2v-2h2l1-3h3v-2h2l-1-3h3l-2-2 5-2-1-3 3-1 1-3-2-1 2-4h2l1-4 5-7h2l-1-4 3-5 1-8 3-4h2v-4l-2-1 4-4 3-8 4-4 1-7 4-7v-3h2l-1-5 4-3-2-4h3l-3-3 3-6 4-2v-27l3-1 1-9-2-11v-3l-1-9 1-2-2-1 3-2-4-3 1-8 1-5v2h-2v-7l-2-8v-2l-2-1 1-4v-4l-2-6-4-18-4-8v-3l-2-1h2v-2l-3 1-2-10-3-3v-4l-4 2-1-7h-2l-2-9h-2l-3-5-1-6h2l-4-11-4-7-4-9-3-5-3-1v-2l-4-2-6-6-1-4-4-4-3-6-2-1v-3l-4-1v-3h-2l-2-4-1-3-8-2h-5l-7-6-5-6-4-4-11-4-3-2v-2l-5-2 1-4h-3l-6-7h-2l-1 2-2-4h-4v2l-3 1v-2l-5-1-9-3v-2h-2l-2-3h-2v-3h-2v-2l-6-3v2h-5l-2-4-9-2v2l-5-1v-4l-10-1-1 1h-5l-1-3-4-1 2 5h-4v-2l-9-1-1 2-8-1v-2h-8l-4 2h-10v-2h-2l-1-1-4 2h-17l-15 2h-10l-4-2-2-2-6 2v2l-4 2h-5l1-3-8 2-1 2-4-1v2h-2v-2l-15 5-3-1 17-6 22-5 16-3 16-2z" fill="#FD375F"/>
<path transform="translate(367,193)" d="m0 0 2 1-1 2 4 2 3 3v3h2l1 7 3 3-1 4 6 1 2 2 4 5 6 2 5 5 8 4 6 4 4 1 2 4 4 1 2-2 4 1 2 6 2-1 7 2 2 1 1 4 1-2h3v2l7 2 9 7 4 1v2l12 6 3 3 1 7 4 1 1-2-4-2 1-2 9 2 6 5 1 2 7 3 8 3 4 5 7 3 2 2 6 2 5 5h3v2l4 1 5 5 5 2v2h2v3l5 1 1 3 4 2 3 3 1 4v3l4 8-1 70-1 37-1 212-1 9-1 46v45l-1 28v76l1 5-1 1h-5l-8-6-11-7-6-5-6-2-4-5-7-2-6-2v-3l-1-3-5-2-2-2v2h-4v2l2 1-2 1v14l1 12 2 13 5 28 6 21 3 9 2-3 4 2 1 4-4 1-1 1 2 10-3-4-5-15-4-13-2-9-2-8-4-23-3-18-1-21v-8l-2-8 6 1 8 7 17 12 28 20 6 5 2 1v-162l2-76 1-67 1-177v-50l-5-5-12-8-25-16-18-11-11-7-13-8-17-11-10-6-18-11-13-8-14-9-19-12-14-9-15-9-21-13-4-3 1-4 16-3z" fill="#FD375F"/>
<path transform="translate(475,170)" d="m0 0 6 1 12 7 33 22 17 11 13 8 33 22 17 12 18 14 8 7 10 9 15 13 10 9 4 3v2l4 2 5 6v20l-2 140-2 78-1 112 2 1-4-1v-50l1-116 1-23v-52l1-67 1-22v-13l-4-9-14-10-6-3 1-2-7-2-1-2-3-1v-3l-4-1-7-7-3-1v-2h-3v-2h-3l-5-5v-2l-5-2v-2h-2v-2l-8-4-1-2-3-1v-3l-4-1-4-3-4-1v-3l-4-1-4-3-5-2v-2l-4-2-4-3h-3v-3l-4-1-8-5-2-2-6-4-6-2v-2l-6-2 1-2-5-2v-2l-7-1-1-3-4-2-2-2h-2l-1-7-4 2-3-2v-3l-3 2-5-4-4-2v-3l-3-1-4-5h-4v-2h-8-3-2v-2l-5 1v2l-4 3-2-1h-11l-10 3-11 2-6 2-10 1-8 2-12 2-2 4-5 1-1-2h-10v-2l17-3 42-9 31-7 7-2z" fill="#FD375F"/>
<path transform="translate(712,771)" d="m0 0 2 1-13 13-14 19-7 12-7 15-8 24-2 13-2 7v43l3 17 4 16 8 20 10 18 9 12 7 9 9 10 13 11 16 11 14 8 19 8 15 5 14 4 23 2h14l24-2 10-2-2 3-7 2-25 2-1 3-11 1-1 3-10-3v-2l-3-1h-7l-1 2-9-1-1-2-12-2v-2l-4-1-2 1v2h-2v-2h-5l-5-3-6-2-1-2-3-1-2-6-5 3-3-4-6-1v-3l-9-2v-2l-3-2v-2l-6-1-2-4-4-1v-3l-3-1v-5l-8-5v-2l-4-2-5-3v-2l-4-1h-4l-1-5-4-1 2-1-3-3-1-4-4-6-2-5-2-4v-6h-2v-2h-2l-1-4v-2l-4-8-2-10-4-4v-7l-3-5h2v-2l-3-1 2-1-2-10h2l-1-7v-5l-3-7v-5l-1-3 3-3h2l-2-6 2-1v-3h2l-1-10 2-1v-2l-2-1h2l3-9 1-7-1-4 1-3h2v-9l3-5 2-2 2-5 2-6 5-10 3-1v-2h2v-5l4-5h4v-4h2l2-4 7-5 5-5z" fill="#FD375F"/>
<path transform="translate(331,348)" d="m0 0 6 2 23 12 22 13 28 16 19 11 16 10 1 2v23l-2 87-5-2-21-11-17-10-19-11-10-6 4-1 1-2 4 3v2h4l1 5 10 1 7 1-1 3 4 2 1 4 7-1v6h7l1 3 5-2v-3l11 1 1-3h2v-53l-3-1 3-3 1-3h-2l-3-11h2l-1-4 2-1 1-3h-2l-1-4-10-6v-2l-4 1-1-4-3 1-5-2v-3l-8-2-1-2-7-3-5-4h-2l-1-2-4-1-1-3-5-2-4-3h-2l-1-2-3-1-5-5v-2l-5-1v-2h-2v-2h-2l-1-2-2 1h-10l-2-3-4-1v-3l-4 1v64l1 32 2 2 2-1 6 3 5 5 9 3 2 2-2 4h-3l-24-13-1-2z" fill="#FD375F"/>
<path transform="translate(588,1057)" d="m0 0 4 2 4 4v2l4 2 19 19 6 2v3l4-1 8 4v2l2 1-1 2 4 1 1 6 3 2v3h5v-3h5l6 7 9 2 1 4 9 3 2 1v3l5 1 5 3 2 1v2h3v3l5-1 5 5 4 3 8 1 2 4 7 1 2 3 6 2v-2l4 1 1 3 14 5 1-2 6 3 11 1 4 2 10 2h10v2l21 1h22l18-2 22-1 6-2 16-3 4 1-9 3-13 2-7 2-19 2-7 1-27 1-19-1-27-4-7-2-12-2-5-2-12-3-27-10-33-16-13-8-17-11-9-6-17-14-8-8-8-7-12-12v-2l-4-2v-2l-4-2z" fill="#FD375F"/>
<path transform="translate(540,1261)" d="m0 0 6 2 3 3v2h5l5 3 4 1 1 3 10 6v2l6 2 2 1v2l5 1 8 4 8 3 1 3 4 1 2 5 3 2-1-3 4 1 3 2 5 1 4 4 1-2 4 2 6 2v2l5 1 3 5 3 1-1-3h3l2 3v4l2-1-2-6 5 1 4 2 4 7h6l2-2 3 4v3h8v2l9 3 10 3 11 3 2 2-10-1-17-5-20-6-25-9-21-9-23-11-23-13-11-7-16-10-11-8-7-5 2-1 4 2z" fill="#FD375E"/>
<path transform="translate(999,846)" d="m0 0 2 3 2 9 2 5 1 14 1 5v22l-1 23-1 6h-2l-1 10h-2v5l-1 1-2 12-2 2-2 7-1 3-1 5h-2l1 3-3 6v3h-3l-1 4-2 2-2 3-1 6-3 1-1 5h-2l-2 4h-3l-1 3h-3l-1 4-4 2-4 4h-3l-1 6-4 2-4 4-6 3-8 3-17 9-6 1v2l-6 1-2 4-3 1h-4v2l-8 1-8-1-1-2 16-4 17-7 17-9 16-11 20-18 10-11 10-15 6-10 7-16 7-21 4-18 1-33-1-23-4-16z" fill="#FD375F"/>
<path transform="translate(852,721)" d="m0 0 9 2 10 1h6l5 2v2h5l3 2h5l8 5 1-2 4 1 1 4 2 1 1-2h2l1 1 6 2 4 3v2 1 2h8v4l2 1-1 2 4 1 1-2h2v2l7 1 5 6-1 2-2-1 1 3 3 2v2l4 2 1 1v-4h2v2l4 2 6 5v2h3v4h2l4 6 3 2-1 4 2 1v2l-6-2-1 3-9-12-8-10-1-3-4-2v-2l-4-2-16-13-11-7-10-6-14-7-24-8-25-4h-33l-16 3-15 2 1-2 6-2 13-1v-2h8l3-1z" fill="#FD375F"/>
<path transform="translate(375,1323)" d="m0 0h10l6 4 4 8-1 8-4 6-6 3h-9l-6-4-4-8v-7l4-6z" fill="#100F0F"/>
<path transform="translate(807,348)" d="m0 0h5l-3 1 1 7-1 4-1 15v52l1 1 10 1v2l7 1 18 3 8 2 6 3v-2h2v2l22 1 10 2 1 2-21-1-41-3-26-1-1-1v-28l1-42 1-16z" fill="#FE3860"/>
<path transform="translate(320,1323)" d="m0 0h10l6 4 3 4 1 3v8l-5 7-6 3h-8l-6-3-4-7-1-7 4-8z" fill="#100F0F"/>
<path transform="translate(678,338)" d="m0 0h1v78l-1 62-2 78-1 112 2 1-4-1v-50l1-116 1-23v-52l1-67 1-21z" fill="#FE3860"/>
<path transform="translate(536,962)" d="m0 0 4 1 3 7v3l3 1 1 6 3 2 2 7 3 3v2h2l-1 4h2l4 4 1 4 3 3 3 9h2l-1 4h2v2l3 1-2 6-2 1 1 4-4-4-12-18-14-27-7-15v-7z" fill="#FD375F"/>
<path transform="translate(1229,738)" d="m0 0 3 4 3 13 4 18 3 15 3 19 1 15v79l-2 6h-1l-1 8 1 4-2 8h-3l-1 16h-2l1 4h-2v12l-2 3-2 6v6l-2 4v5l-5 7-3 9-1 5-2 6-4 1 14-42 6-24 6-30 3-19 1-14v-66l-2-16-4-26-4-17-4-16z" fill="#FE3860"/>
<path transform="translate(377,1061)" d="m0 0h3l4 8 3 3 2 4h-2l3 6 2 5 1-1 1 4h2l3 3 1 7h2l2 7 5 5 2 6v4l3 1 1 6 3-1 1 4h-2l-1 4-3 2-12-19-14-24 1-3-1-6 1-2-5-2v-4h2v-2h-3v-3h-2l-2-5-3-3z" fill="#FD375E"/>
<path transform="translate(718,1348)" d="m0 0h9l10 1 3 2 15 2h7l5 2 16 2 14 1 5-1 6 2h20l4-2 6 1v-2h18l19 1h13l2-1 20-2h7v1l-26 4-33 2-22 1h-16l-36-2-16-2-23-3-24-5z" fill="#FE3860"/>
<path transform="translate(332,641)" d="m0 0h1l1 150-3 20-1 14v54l1 22 2 17 2 16 2 13v6h-1l-4-23-4-37v-86l2-15 1-21z" fill="#FE3860"/>
<path transform="translate(1243,1148)" d="m0 0v3l-13 17-9 10-7 9-9 10-16 17-18 18-8 7-9 8-9 7-3 3-2-1 3-5 2-3 6-2 8-7 3-3h2l1-3h2l1-4 3-3h3l2-5h3l1-4 6-5 1-3h4l1-4 2-1 1-7 6-1v-2l5-2 1-3 4-1-1-3 4-1 1-7 4-2v-2l7-4 6-8 3-6v-2l3-1 2-3z" fill="#FD375F"/>
<path transform="translate(756,1161)" d="m0 0 9 3 9 1 4 2 10 2h10v2l21 1h22l18-2 22-1 6-2 16-3 4 1-9 3-13 2-7 2-19 2-7 1-27 1-19-1-27-4-7-2-12-2-5-2z" fill="#FE3860"/>
<path transform="translate(588,1057)" d="m0 0 4 2 4 4v2l4 2 19 19 6 2v3l4-1 8 4v2l2 1-1 2 4 1 1 6 3 2 1 4-4-2-16-13-8-8-8-7-12-12v-2l-4-2v-2l-4-2z" fill="#FE3860"/>
<path transform="translate(999,846)" d="m0 0 2 3 2 9 2 5 1 14 1 5v22l-1 23-1 6h-2l-1 10h-2v5l-1 1-2 12-4 2 1-5 6-21 3-13 1-33-1-23-4-16z" fill="#FE3860"/>
<path transform="translate(446,176)" d="m0 0m-3 1 3 1-8 3-16 4-14 2-8 2-12 2-2 4-5 1-1-2h-10v-2l17-3 42-9z" fill="#FE3860"/>
<path transform="translate(785,624)" d="m0 0m-4 1 4 1-7 3v2l-4 2h-5l1-3-8 2-1 2-4-1v2h-2v-2l-15 5-3-1 17-6 22-5z" fill="#FE3860"/>
<path transform="translate(374,1066)" d="m0 0 5 2 1 5h2v3h3l-1 6 4 2v6l1 4-3-1-11-21z" fill="#FC3355"/>
<path transform="translate(1136,1259)" d="m0 0 2 1-20 14-11 7-8 5-2-1 10-7 24-16z" fill="#FE3860"/>
<path transform="translate(887,350)" d="m0 0 15 1 26 4 1 2h-8l-8-2-22-2z" fill="#FE3860"/>
<path transform="translate(724,642)" d="m0 0 3 1-32 16-5 1 3-3 15-8z" fill="#FE3860"/>
<path transform="translate(523,939)" d="m0 0h2l2 6 2-3 4 2 1 4-4 1-1 1 2 10-3-4-5-15z" fill="#FE3860"/>
<path transform="translate(818,722)" d="m0 0m-11 1h11v2l-16 3-15 2 1-2 6-2 13-1z" fill="#FE3860"/>
<path transform="translate(691,1340)" d="m0 0 8 1 6 2 11 3 2 2-10-1-17-5z" fill="#FE3860"/>
<path transform="translate(782,730)" d="m0 0h5l-2 2-13 4-14 6-2-1 11-7 9-2z" fill="#FE3860"/>
<path transform="translate(1243,1148)" d="m0 0v3l-10 13-2-1 4-8v-2l3-1 2-3z" fill="#FE3860"/>
<path transform="translate(752,742)" d="m0 0 4 1-19 11-9 7-2-1 11-9 14-8z" fill="#FE3860"/>
<path transform="translate(379,1077)" d="m0 0 5 5 4 2v6l1 4-3-1-7-13z" fill="#FC3355"/>
<path transform="translate(516,1249)" d="m0 0 5 2 4 3 1-1 1-2 3 1-1 7 4 2 1 2-4-2-14-11z" fill="#FD375F"/>
<path transform="translate(376,481)" d="m0 0 5 2v3h4l2 6-5-2-10-6 4-1z" fill="#FD375E"/>
<path transform="translate(446,1173)" d="m0 0 5 1v3l4 1 1 7-4-1v-2h-2v-3l-3-1-2-4z" fill="#FD375F"/>
<path transform="translate(871,1065)" d="m0 0 2 1-5 3-4 1h-14l1-2 17-2z" fill="#FE3860"/>
<path transform="translate(899,629)" d="m0 0 14 3 1 2h-7v2l-5-1v-4l-3-1z" fill="#FE3860"/>
<path transform="translate(439,1172)" d="m0 0 5 3v2h2l1 4h2l5 8-1 2-14-17z" fill="#FE3860"/>
<path transform="translate(1084,1293)" d="m0 0 2 1-22 12-2-1 5-3 9-5z" fill="#FE3860"/>
<path transform="translate(974,1134)" d="m0 0 2 1-20 11-2-1 7-4h2v-3l7-2z" fill="#FE3860"/>
<path transform="translate(1229,722)" d="m0 0 5 4 1 5-6-2h-2l1-6z" fill="#FD375E"/>
<path transform="translate(575,1040)" d="m0 0 6 5 7 10-1 2-12-15z" fill="#FE3860"/>
<path transform="translate(1224,710)" d="m0 0 4 1 2 2v3l-5 2-1-5z" fill="#FE3860"/>
<path transform="translate(359,476)" d="m0 0 5 1 9 2-1 4-6-2-7-4z" fill="#FD375F"/>
<path transform="translate(380,1073)" d="m0 0h2v3h3l-2 6-3-3-2-5z" fill="#FB2F4D"/>
<path transform="translate(529,942)" d="m0 0 4 2 1 4-4 1-3-1z" fill="#FD375E"/>
<path transform="translate(573,873)" d="m0 0 2 2 1 5-1 1h-5v-3l2 1z" fill="#FE3860"/>
</svg>
