<?xml version="1.0" encoding="UTF-8"?>
<svg version="1.1" viewBox="0 0 1608 1608" width="1280" height="1280" xmlns="http://www.w3.org/2000/svg">
<path transform="translate(0)" d="m0 0h1608v1608h-1608z" fill="#FEFEFD"/>
<path transform="translate(472,170)" d="m0 0h7l8 4 30 20 11 7 23 15 22 14 12 8 17 12 12 9 14 11 14 13 11 9 12 11 8 7 7 7v23l-1 95-3 128-1 104 7-3 11-7 17-9 29-12 15-5 26-6 19-3 20-2h35l31 5 17 4 26 8 18 7 19 10 19 11 12 8 12 9 10 9 27 27v2h2l14 19 11 18 12 23 8 19 6 19 7 31 3 19 1 17v21l-1 22-3 14-2 14-4 16-10 30-10 22-11 20-14 21-18 22-17 17-11 9-18 13-17 11-24 13-24 10-11 4-12 3-17 3-6 2-20 2-17 2h-25l-18-2-25-4-12-2-9-3-17-5-25-10-32-16-22-14-10-7-16-12-15-14-28-28-10-13-9-12-10-15-8-14-8-15-11-24-9-24-4-13-4-17-2-11-5-30-1-10-1-24-1-5 6 2 7 6 14 10 17 12 11 8 12 9-1-19 1-155 2-80 1-85 1-164v-28l-6-7-41-26-9-5-7-5-7-4-22-14-25-15-10-7-14-8-19-12-23-15-36-22-10-7v-3l7-2 21-5 31-6 37-8 17-4z" fill="#FB304E"/>
<path transform="translate(808,347)" d="m0 0h51l28 2 36 5 26 5 30 8 30 10 29 12 25 12 25 14 13 8 27 18 12 9 18 14 12 11 8 7 10 9 14 14 7 8 9 10 11 13 10 13 14 19 10 15 9 15 9 16 12 23 12 28 7 19 9 29 9 39 5 29 3 33 2 30v19l-3 40-2 21-2 10-2 15-5 22-8 29-9 26-10 26-7 15-14 29-12 21-10 16-12 17-13 17-11 13-7 9-8 8-7 8-32 32-22 18-8 7-21 14-19 12-13 8-23 12-12 6-19 9-26 10-21 7-48 12-20 4-17 2-12 2-41 2h-30l-42-3-27-4-25-5-30-8-32-10-34-14-30-15-17-10-16-10-17-12-11-7-10-8-11-9-13-10-13-12-31-31-16-20-9-11-10-14-9-14-12-19-12-21-12-23-9-20-12-31-8-26-7-27-4-19-4-26-3-27-1-19v-36l1-38 2-15 1-35 1-127 6 2 22 12 48 28 17 10 11 8 4 6v12l-5 25-5 24-5 38-3 33-1 16v37l2 22 4 29 5 23 7 25 8 23 13 31 13 25 17 28 14 20 13 16 9 10 7 8 11 12 13 12 10 8 10 9 14 10 16 11 13 8 23 13 21 10 27 11 18 6 22 6 18 5 30 5 22 3 16 1h26l23-2 30-4 19-3 22-6 25-8 30-11 29-14 18-10 15-10 13-9 11-8 25-20 11-11 8-7 11-12 11-11 11-14 12-15 9-13 8-13 14-25 15-32 9-25 7-23 6-26 4-22 3-21 1-17v-40l-1-29-3-19-2-12-7-30-8-25-9-24-6-15-8-16-13-24-8-13-8-12-21-28-16-17-6-7-6-5-6-7-8-7-10-9-10-8-16-12-10-7-16-10-21-12-23-11-28-11-26-8-34-8-28-4-57-4-24-1v-43l2-49z" fill="#FB304E"/>
<path transform="translate(818,724)" d="m0 0h32l15 3 11 1 28 10 20 11 11 8 12 9 10 9 7 7 8 11 9 13 8 16 6 14 4 11 3 14 1 1 1 14v47l-5 21-7 21-8 17-8 13-8 11-25 25-17 12-16 9-19 8-8 3-21 5-35 2-28-3-10-3-24-8-20-10-15-10-14-11-10-9-13-16-10-15-11-21-7-20-4-19-1-9v-38l5-26 5-15 7-17 8-14 12-17 12-13 12-11 14-10 11-7 19-10 16-6 10-3 2-1 15-2z" fill="#FEFEFD"/>
<path transform="translate(1156,168)" d="m0 0h15l9 3 6 4 2 3 103 1v-10h23l2 3 3 11v13l-3 8v6l-3 1h-22v-11l-68 1-1 4 4 7 9 14 5 14 1 5v46l-2 6-8 1-3-2-1-4-1-46-2-9-8-14-4-5-4-1-4 1h-7l-6 8-7 6-10 5-3 1h-14l-11-4-10-8-5-8-13-1-6 5-7 11-3 9-1 5-1 47-2 3-6 1-4-1-2-7v-42l4-16 7-14 7-10v-7l-70-1v9l-2 2h-19l-4-1-1-9-3-7v-8l5-17h23l1 3v7h105l1-3 10-6z" fill="#13090B"/>
<path transform="translate(331,348)" d="m0 0 6 2 20 10 22 13 24 14 28 16 14 9 1 1v38l-2 73-6-2-23-13-13-7-17-10-23-13-21-12-10-6z" fill="#FB304E"/>
<path transform="translate(253,1196)" d="m0 0h32l3 4 6 23 120 1 5 6-1 7-16 42-6 13-7 2h-73l-3-1 3 10 85 1 3 3v6l-2 2-5 1h-90l-3-5-19-72-7-28v-2h-20l-9-1-2-4v-7z" fill="#0F0809"/>
<path transform="translate(1022,154)" d="m0 0 60 2 14 1 6 2-2 4-25 2-34 1h-44l-48-2-6-2-1-4 8-1z" fill="#1F0B0E"/>
<path transform="translate(1301,154)" d="m0 0 61 2 17 1 5 1v4l-2 1-25 2-26 1h-48l-45-2-12-1-2-1 1-4 26-2z" fill="#200B0E"/>
<path transform="translate(378,1322)" d="m0 0 10 2 6 7 1 3v7l-3 6-5 4-5 2-8-1-7-6-2-5v-9l3-5 6-4z" fill="#12090A"/>
<path transform="translate(324,1322)" d="m0 0 9 2 6 6 1 3v10l-6 7-8 3-8-2-5-4-3-7 1-9 6-7z" fill="#11090A"/>
<path transform="translate(1301,147)" d="m0 0h5l2 5-2 2-5-2z" fill="#3D1017"/>
<path transform="translate(1021,147)" d="m0 0 4 1v5l-6-1v-4z" fill="#3F1117"/>
</svg>
